# xmcd
#
# Track frame offsets:
#	150
#	18653
#	36300
#	56110
#	76148
#	93763
#	111063
#	127340
#	148275
#	160918
#	179260
#	194115
#	209875
#	227458
#
# Disc length: 3239 seconds
#
# Revision: 2
# Processed by: cddbd v1.5.2PL0 Copyright (c) Steve Scherf et al.
# Submitted via: audiograbber 1.83.01
#
DISCID=d10ca50e
DTITLE=Wim Pols - In Nederland
DYEAR=1990
DGENRE=Country Gospel
TTITLE0=In Nederland
TTITLE1=Regenboog
TTITLE2=Spiegels
TTITLE3=Ik wil U prijzen
TTITLE4=Talentjacht
TTITLE5=God is Rechvaardig
TTITLE6=Ieder doet het zijne
TTITLE7=Vrede
TTITLE8=Het mooiste kunnen delen
TTITLE9=De belangrijkste keus
TTITLE10=Storm op zee
TTITLE11=Eigen ik
TTITLE12=Ik zou je willen vragen
TTITLE13=Zul je nooit meer vergeten
EXTD=
EXTT0=
EXTT1=
EXTT2=
EXTT3=
EXTT4=
EXTT5=
EXTT6=
EXTT7=
EXTT8=
EXTT9=
EXTT10=
EXTT11=
EXTT12=
EXTT13=
PLAYORDER=
